<mxfile modified="2022-05-11T21:02:46.836Z" host="app.diagrams.net" agent="5.0 (X11; Linux x86_64) AppleWebKit/537.36 (KHTML, like Gecko) Chrome/100.0.4896.127 Safari/537.36" etag="P5mCkZOwDvd99zvF8m3j" version="18.0.2" type="github">
  <diagram id="Ht1M8jgEwFfnCIfOTk4-" name="Deploy Diagram">
    <mxGraphModel dx="1053" dy="547" grid="1" gridSize="10" guides="1" tooltips="1" connect="1" arrows="1" fold="1" page="1" pageScale="1" pageWidth="1169" pageHeight="827" background="#DAD2D8" math="0" shadow="0">
      <root>
        <mxCell id="0" />
        <mxCell id="1" parent="0" />
        <mxCell id="Dreo23DIPxEbcCMG-sFe-8" value="" style="group" vertex="1" connectable="0" parent="1">
          <mxGeometry x="50" y="50" width="1010" height="770" as="geometry" />
        </mxCell>
        <mxCell id="Dreo23DIPxEbcCMG-sFe-6" value="" style="rounded=0;whiteSpace=wrap;html=1;sketch=0;fillColor=#e1d5e7;strokeColor=#9673a6;" vertex="1" parent="Dreo23DIPxEbcCMG-sFe-8">
          <mxGeometry width="1010" height="770" as="geometry" />
        </mxCell>
        <mxCell id="Dreo23DIPxEbcCMG-sFe-7" value="" style="group" vertex="1" connectable="0" parent="Dreo23DIPxEbcCMG-sFe-8">
          <mxGeometry x="100" y="30" width="870" height="690" as="geometry" />
        </mxCell>
        <mxCell id="G6Xr-zNiUfTveNbCJxS4-7" value="" style="sketch=0;outlineConnect=0;fontColor=#143642;fillColor=#FAE5C7;strokeColor=none;dashed=0;verticalLabelPosition=bottom;verticalAlign=top;align=center;html=1;fontSize=12;fontStyle=0;aspect=fixed;pointerEvents=1;shape=mxgraph.aws4.user;" parent="Dreo23DIPxEbcCMG-sFe-7" vertex="1">
          <mxGeometry x="400" y="32" width="78" height="78" as="geometry" />
        </mxCell>
        <mxCell id="G6Xr-zNiUfTveNbCJxS4-49" value="Simple Storage Service S3" style="swimlane;fillColor=#FAE5C7;strokeColor=#0F8B8D;fontColor=#143642;" parent="Dreo23DIPxEbcCMG-sFe-7" vertex="1">
          <mxGeometry x="455" y="485" width="200" height="205" as="geometry" />
        </mxCell>
        <mxCell id="G6Xr-zNiUfTveNbCJxS4-50" value="Bucket-Images&lt;br&gt;" style="sketch=0;outlineConnect=0;fontColor=#143642;strokeColor=#0F8B8D;fillColor=#FAE5C7;dashed=0;verticalLabelPosition=bottom;verticalAlign=top;align=center;html=1;fontSize=12;fontStyle=0;aspect=fixed;shape=mxgraph.aws4.resourceIcon;resIcon=mxgraph.aws4.bucket;" parent="G6Xr-zNiUfTveNbCJxS4-49" vertex="1">
          <mxGeometry x="57" y="61" width="86" height="86" as="geometry" />
        </mxCell>
        <mxCell id="G6Xr-zNiUfTveNbCJxS4-54" value="Elastic Compute Cloud" style="swimlane;fillColor=#FAE5C7;startSize=23;strokeColor=#0F8B8D;fontColor=#143642;" parent="Dreo23DIPxEbcCMG-sFe-7" vertex="1">
          <mxGeometry y="485" width="219" height="205" as="geometry" />
        </mxCell>
        <mxCell id="G6Xr-zNiUfTveNbCJxS4-59" value="" style="group;fontColor=#143642;" parent="G6Xr-zNiUfTveNbCJxS4-54" vertex="1" connectable="0">
          <mxGeometry x="49.78" y="44" width="119.44" height="105" as="geometry" />
        </mxCell>
        <mxCell id="G6Xr-zNiUfTveNbCJxS4-44" value="" style="verticalLabelPosition=bottom;html=1;verticalAlign=top;strokeWidth=1;align=center;outlineConnect=0;dashed=0;outlineConnect=0;shape=mxgraph.aws3d.application_server;fillColor=#FAE5C7;strokeColor=#0F8B8D;aspect=fixed;fontColor=#143642;" parent="G6Xr-zNiUfTveNbCJxS4-59" vertex="1">
          <mxGeometry width="104.1525" height="105" as="geometry" />
        </mxCell>
        <mxCell id="G6Xr-zNiUfTveNbCJxS4-58" value="Ubuntu 20.04&lt;br&gt;InstÃ¢ncia Amazon" style="text;html=1;resizable=0;autosize=1;align=center;verticalAlign=middle;points=[];fillColor=none;strokeColor=none;rounded=0;fontColor=#143642;" parent="G6Xr-zNiUfTveNbCJxS4-54" vertex="1">
          <mxGeometry x="49.779626989270554" y="165" width="110" height="30" as="geometry" />
        </mxCell>
        <mxCell id="G6Xr-zNiUfTveNbCJxS4-57" value="" style="group;fontColor=#143642;" parent="Dreo23DIPxEbcCMG-sFe-7" vertex="1" connectable="0">
          <mxGeometry x="369" y="260" width="140" height="119.68" as="geometry" />
        </mxCell>
        <object label="" logos-application="" id="G6Xr-zNiUfTveNbCJxS4-43">
          <mxCell style="verticalLabelPosition=bottom;html=1;verticalAlign=top;strokeWidth=1;align=center;outlineConnect=0;dashed=0;outlineConnect=0;shape=mxgraph.aws3d.application2;fillColor=#FAE5C7;strokeColor=#0F8B8D;aspect=fixed;fontColor=#143642;" parent="G6Xr-zNiUfTveNbCJxS4-57" vertex="1">
            <mxGeometry width="140" height="119.68" as="geometry" />
          </mxCell>
        </object>
        <mxCell id="G6Xr-zNiUfTveNbCJxS4-56" value="Logos Application&lt;br&gt;[Java + Spring Boot]" style="text;html=1;resizable=0;autosize=1;align=center;verticalAlign=middle;points=[];fillColor=none;strokeColor=none;rounded=0;fontColor=#143642;" parent="G6Xr-zNiUfTveNbCJxS4-57" vertex="1">
          <mxGeometry x="9.998430322612347" y="29.99923076923077" width="120" height="30" as="geometry" />
        </mxCell>
        <mxCell id="G6Xr-zNiUfTveNbCJxS4-62" value="Relational Database Service RDS" style="swimlane;fillColor=#FAE5C7;startSize=23;strokeColor=#0F8B8D;fontColor=#143642;" parent="Dreo23DIPxEbcCMG-sFe-7" vertex="1">
          <mxGeometry x="230" y="485" width="210" height="205" as="geometry" />
        </mxCell>
        <mxCell id="G6Xr-zNiUfTveNbCJxS4-68" value="Logos&lt;br&gt;BD" style="sketch=0;outlineConnect=0;fontColor=#143642;strokeColor=#0F8B8D;fillColor=#FAE5C7;dashed=0;verticalLabelPosition=bottom;verticalAlign=top;align=center;html=1;fontSize=12;fontStyle=0;aspect=fixed;shape=mxgraph.aws4.resourceIcon;resIcon=mxgraph.aws4.generic_database;" parent="G6Xr-zNiUfTveNbCJxS4-62" vertex="1">
          <mxGeometry x="45" y="44" width="120" height="120" as="geometry" />
        </mxCell>
        <mxCell id="G6Xr-zNiUfTveNbCJxS4-63" value="Elastic Cache Redis" style="swimlane;fillColor=#FAE5C7;startSize=23;strokeColor=#0F8B8D;fontColor=#143642;" parent="Dreo23DIPxEbcCMG-sFe-7" vertex="1">
          <mxGeometry x="670" y="485" width="200" height="205" as="geometry" />
        </mxCell>
        <mxCell id="G6Xr-zNiUfTveNbCJxS4-72" value="cache session" style="sketch=0;outlineConnect=0;fontColor=#143642;strokeColor=#0F8B8D;fillColor=#FAE5C7;dashed=0;verticalLabelPosition=bottom;verticalAlign=top;align=center;html=1;fontSize=12;fontStyle=0;aspect=fixed;shape=mxgraph.aws4.resourceIcon;resIcon=mxgraph.aws4.generic_database;" parent="G6Xr-zNiUfTveNbCJxS4-63" vertex="1">
          <mxGeometry x="40" y="47.5" width="120" height="120" as="geometry" />
        </mxCell>
        <mxCell id="G6Xr-zNiUfTveNbCJxS4-64" style="edgeStyle=orthogonalEdgeStyle;rounded=0;orthogonalLoop=1;jettySize=auto;html=1;strokeColor=#A8201A;fontColor=#143642;labelBackgroundColor=#DAD2D8;" parent="Dreo23DIPxEbcCMG-sFe-7" source="G6Xr-zNiUfTveNbCJxS4-43" target="G6Xr-zNiUfTveNbCJxS4-54" edge="1">
          <mxGeometry relative="1" as="geometry" />
        </mxCell>
        <mxCell id="G6Xr-zNiUfTveNbCJxS4-65" value="User" style="text;html=1;resizable=0;autosize=1;align=center;verticalAlign=middle;points=[];fillColor=none;strokeColor=none;rounded=0;fontColor=#143642;" parent="Dreo23DIPxEbcCMG-sFe-7" vertex="1">
          <mxGeometry x="419" width="40" height="20" as="geometry" />
        </mxCell>
        <mxCell id="G6Xr-zNiUfTveNbCJxS4-29" value="" style="edgeStyle=orthogonalEdgeStyle;rounded=0;orthogonalLoop=1;jettySize=auto;html=1;strokeColor=#A8201A;fontColor=#143642;labelBackgroundColor=#DAD2D8;" parent="Dreo23DIPxEbcCMG-sFe-7" source="G6Xr-zNiUfTveNbCJxS4-7" target="G6Xr-zNiUfTveNbCJxS4-43" edge="1">
          <mxGeometry relative="1" as="geometry">
            <mxPoint x="479" y="280" as="targetPoint" />
          </mxGeometry>
        </mxCell>
        <mxCell id="G6Xr-zNiUfTveNbCJxS4-66" style="edgeStyle=orthogonalEdgeStyle;rounded=0;orthogonalLoop=1;jettySize=auto;html=1;strokeColor=#A8201A;fontColor=#143642;labelBackgroundColor=#DAD2D8;" parent="Dreo23DIPxEbcCMG-sFe-7" source="G6Xr-zNiUfTveNbCJxS4-43" target="G6Xr-zNiUfTveNbCJxS4-49" edge="1">
          <mxGeometry relative="1" as="geometry" />
        </mxCell>
        <mxCell id="G6Xr-zNiUfTveNbCJxS4-69" style="edgeStyle=orthogonalEdgeStyle;rounded=0;orthogonalLoop=1;jettySize=auto;html=1;strokeColor=#A8201A;fontColor=#143642;labelBackgroundColor=#DAD2D8;" parent="Dreo23DIPxEbcCMG-sFe-7" source="G6Xr-zNiUfTveNbCJxS4-43" target="G6Xr-zNiUfTveNbCJxS4-62" edge="1">
          <mxGeometry relative="1" as="geometry" />
        </mxCell>
        <mxCell id="G6Xr-zNiUfTveNbCJxS4-71" style="edgeStyle=orthogonalEdgeStyle;rounded=0;orthogonalLoop=1;jettySize=auto;html=1;entryX=0.427;entryY=-0.001;entryDx=0;entryDy=0;entryPerimeter=0;strokeColor=#A8201A;fontColor=#143642;labelBackgroundColor=#DAD2D8;" parent="Dreo23DIPxEbcCMG-sFe-7" source="G6Xr-zNiUfTveNbCJxS4-43" target="G6Xr-zNiUfTveNbCJxS4-63" edge="1">
          <mxGeometry relative="1" as="geometry" />
        </mxCell>
        <mxCell id="Dreo23DIPxEbcCMG-sFe-1" style="edgeStyle=orthogonalEdgeStyle;rounded=0;orthogonalLoop=1;jettySize=auto;html=1;strokeColor=#A8201A;labelBackgroundColor=#DAD2D8;fontColor=#143642;" edge="1" parent="Dreo23DIPxEbcCMG-sFe-7" source="G6Xr-zNiUfTveNbCJxS4-43" target="Dreo23DIPxEbcCMG-sFe-2">
          <mxGeometry relative="1" as="geometry">
            <mxPoint x="610" y="140" as="targetPoint" />
          </mxGeometry>
        </mxCell>
        <mxCell id="Dreo23DIPxEbcCMG-sFe-2" value="" style="verticalLabelPosition=bottom;html=1;verticalAlign=top;strokeWidth=1;align=center;outlineConnect=0;dashed=0;outlineConnect=0;shape=mxgraph.aws3d.email_service;fillColor=#FAE5C7;strokeColor=#0F8B8D;aspect=fixed;fontColor=#143642;" vertex="1" parent="Dreo23DIPxEbcCMG-sFe-7">
          <mxGeometry x="660" y="130" width="78.65" height="100" as="geometry" />
        </mxCell>
        <mxCell id="Dreo23DIPxEbcCMG-sFe-4" style="edgeStyle=orthogonalEdgeStyle;curved=0;rounded=1;sketch=0;orthogonalLoop=1;jettySize=auto;html=1;fontColor=#143642;strokeColor=#A8201A;fillColor=#FAE5C7;" edge="1" parent="Dreo23DIPxEbcCMG-sFe-7" source="Dreo23DIPxEbcCMG-sFe-3" target="G6Xr-zNiUfTveNbCJxS4-7">
          <mxGeometry relative="1" as="geometry">
            <Array as="points">
              <mxPoint x="699" y="70" />
            </Array>
          </mxGeometry>
        </mxCell>
        <mxCell id="Dreo23DIPxEbcCMG-sFe-3" value="ServiÃ§o de NotificaÃ§Ã£o por E-mail&lt;br&gt;[Amazon SNS]" style="text;html=1;resizable=0;autosize=1;align=center;verticalAlign=middle;points=[];fillColor=none;strokeColor=none;rounded=0;fontColor=#143642;" vertex="1" parent="Dreo23DIPxEbcCMG-sFe-7">
          <mxGeometry x="604.33" y="95" width="190" height="30" as="geometry" />
        </mxCell>
      </root>
    </mxGraphModel>
  </diagram>
</mxfile>
